<?xml version="1.0" encoding="UTF-8" standalone="no"?>
<svg
   xmlns:dc="http://purl.org/dc/elements/1.1/"
   xmlns:cc="http://creativecommons.org/ns#"
   xmlns:rdf="http://www.w3.org/1999/02/22-rdf-syntax-ns#"
   xmlns:svg="http://www.w3.org/2000/svg"
   xmlns="http://www.w3.org/2000/svg"
   xmlns:sodipodi="http://sodipodi.sourceforge.net/DTD/sodipodi-0.dtd"
   xmlns:inkscape="http://www.inkscape.org/namespaces/inkscape"
   sodipodi:docname="Bears.svg"
   inkscape:version="1.0 (4035a4fb49, 2020-05-01)"
   id="svg8"
   version="1.1"
   viewBox="0 0 210 297"
   height="297mm"
   width="210mm"
   inkscape:export-filename="C:\Projects\boarwood\misc\Bears.png"
   inkscape:export-xdpi="6.1685719"
   inkscape:export-ydpi="6.1685719">
  <defs
     id="defs2" />
  <sodipodi:namedview
     inkscape:window-maximized="1"
     inkscape:window-y="-8"
     inkscape:window-x="-8"
     inkscape:window-height="1017"
     inkscape:window-width="1920"
     inkscape:snap-page="true"
     inkscape:snap-bbox-midpoints="true"
     inkscape:snap-bbox="true"
     showgrid="false"
     inkscape:document-rotation="0"
     inkscape:current-layer="layer1"
     inkscape:document-units="mm"
     inkscape:cy="814.59327"
     inkscape:cx="713.04441"
     inkscape:zoom="0.35"
     inkscape:pageshadow="2"
     inkscape:pageopacity="0.0"
     borderopacity="1.0"
     bordercolor="#666666"
     pagecolor="#ffffff"
     id="base" />
  <metadata
     id="metadata5">
    <rdf:RDF>
      <cc:Work
         rdf:about="">
        <dc:format>image/svg+xml</dc:format>
        <dc:type
           rdf:resource="http://purl.org/dc/dcmitype/StillImage" />
        <dc:title></dc:title>
      </cc:Work>
    </rdf:RDF>
  </metadata>
  <g
     id="layer1"
     inkscape:groupmode="layer"
     inkscape:label="Layer 1">
    <path
       sodipodi:nodetypes="cccc"
       id="path879"
       d="M -1.2188256e-7,1.4173824e-6 H 209.99999 C 209.99999,262.49043 104.99999,262.49997 104.99999,262.49997 104.99999,262.49997 -1.2188256e-7,262.63695 -1.2188256e-7,1.4173824e-6 Z"
       style="color:#000000;clip-rule:nonzero;display:inline;overflow:visible;visibility:visible;isolation:auto;mix-blend-mode:normal;color-interpolation:sRGB;color-interpolation-filters:linearRGB;solid-color:#000000;solid-opacity:1;fill:#552200;fill-opacity:1;fill-rule:evenodd;stroke:none;stroke-width:0.277812px;stroke-linecap:butt;stroke-linejoin:miter;stroke-miterlimit:4;stroke-dasharray:none;stroke-dashoffset:0;stroke-opacity:1;color-rendering:auto;image-rendering:auto;shape-rendering:auto;text-rendering:auto;enable-background:accumulate" />
    <path
       style="color:#000000;clip-rule:nonzero;display:inline;overflow:visible;visibility:visible;isolation:auto;mix-blend-mode:normal;color-interpolation:sRGB;color-interpolation-filters:linearRGB;solid-color:#000000;solid-opacity:1;fill:#000000;fill-opacity:1;fill-rule:evenodd;stroke:none;stroke-width:0.242501px;stroke-linecap:butt;stroke-linejoin:miter;stroke-miterlimit:4;stroke-dasharray:none;stroke-dashoffset:0;stroke-opacity:1;color-rendering:auto;image-rendering:auto;shape-rendering:auto;text-rendering:auto;enable-background:accumulate"
       d="M 13.345676,16.682095 H 196.65431 c 0,229.127455 -91.65432,229.135785 -91.65432,229.135785 0,0 -91.654314,0.11956 -91.654314,-229.135785 z"
       id="path877"
       sodipodi:nodetypes="cccc" />
    <path
       d="m 87.431642,20.282024 c -0.771444,7.79e-4 -1.708991,0.161428 -2.877183,0.541553 -9.329457,3.03577 -6.233639,5.288132 -9.207867,9.313623 -2.974248,4.025495 -7.220891,7.93978 -8.515205,12.432682 -5.216881,18.109049 5.259316,34.380417 0.87087,56.867889 -2.447481,14.107149 -15.356564,21.942269 -8.88696,45.276119 2.907608,9.73546 10.479139,11.62054 9.170549,18.32427 -1.298436,6.6518 -13.074025,7.01308 -15.269241,13.42504 -3.944412,11.52111 -1.0662,26.66121 6.894549,35.87646 3.685514,4.26628 16.31009,-1.76622 15.969248,5.57142 5.065466,-4.43466 1.9292,-7.39445 4.619316,-7.59383 3.873445,-0.26346 5.476639,5.83268 5.476639,5.83268 5.53989,-7.08158 -3.362657,-9.96672 1.948498,-9.90712 2.436875,0.0273 3.194512,2.71348 3.591447,2.82559 1.007072,-15.68662 -14.842536,-12.72971 -20.522693,-9.38754 -2.502372,1.58875 -3.037365,-5.32223 -2.043258,-7.82947 3.767669,-9.50265 20.712628,-7.54009 25.973348,-16.30479 3.126187,-5.20845 -4.493323,-16.32468 1.291673,-18.17792 2.159695,3.96037 12.826318,8.46143 13.022188,15.10679 0.0965,3.27323 -5.5602,4.55648 -5.96478,7.80605 -1.38932,11.15869 4.18368,24.53947 13.28417,31.00871 7.68262,7.6111 25.51579,-1.1096 24.8284,7.50124 5.75438,-2.59903 3.20555,-7.94951 4.92703,-8.39261 1.27331,-0.32776 3.84881,0.99631 5.02914,5.30977 5.46418,-7.14714 -3.41045,-10.2397 0.15553,-12.18421 1.54236,-0.84105 4.46633,2.79778 4.46633,2.79778 1.89427,-5.8021 -2.95178,-9.27704 -6.51511,-10.37844 -12.64384,-3.9081 -13.20005,4.75567 -19.2321,2.4381 -2.56201,-0.98437 -5.01457,-3.51782 -5.37345,-6.23886 -1.21343,-9.19984 12.47213,-16.80453 12.07775,-25.08197 -1.53864,-11.4061 -13.39347,-16.83135 -17.01322,-25.39521 4.75528,-2.3415 7.08267,-2.46664 10.39454,-6.72478 0,0 7.06987,8.61077 21.9633,6.48072 11.6096,-1.66041 12.99109,-10.58437 19.88856,-11.22553 5.20615,-0.48395 6.97689,2.5914 6.97689,2.5914 -0.22644,-7.71414 -6.51682,-7.23793 -5.8528,-9.55403 0.85409,-2.9791 7.22716,-1.08018 7.22716,-1.08018 -1.79061,-7.15175 -7.49313,-3.60311 -8.64106,-6.6944 -1.08263,-2.91545 5.64606,-2.33051 5.64606,-2.33051 -5.96617,-6.49507 -12.2455,-2.94069 -15.29193,3.31737 -1.81352,3.72539 -19.45554,11.11557 -21.5242,-0.43396 0,0 1.52682,-4.37563 0.95906,-7.68753 12.7722,-0.007 25.52934,-21.376772 27.59179,-25.434011 3.55503,-7.348324 10.90609,-3.456064 10.90609,-3.456064 -0.73548,-6.758692 -8.41824,-4.285007 -7.54515,-7.793981 0.53601,-2.154336 6.3347,-2.05644 6.3347,-2.05644 -3.37481,-6.484726 -8.82498,-0.611579 -11.0993,-3.956269 -1.97436,-2.903605 4.24244,-4.773722 4.24244,-4.773722 -14.70911,-6.726426 -16.12736,9.700545 -19.41397,17.85517 -2.63972,6.549517 -10.64084,8.229319 -13.30614,8.193194 -6.84989,-13.846398 -5.06903,-8.120844 -17.8815,-16.079385 -2.64898,-1.663435 -8.2168,-2.817153 -7.35708,-5.824629 3.35134,-1.953997 10.66222,0.400765 12.70237,-2.745823 0.98134,-1.688422 0.22028,-4.54445 -1.35389,-5.700217 -4.77658,-3.507005 -17.06289,2.752574 -17.7326,1.260209 -5.05132,-14.286275 14.44875,-2.473693 18.31623,-7.878874 2.60067,-3.63469 3.47105,-9.618096 1.03884,-13.367592 -2.7038,-4.168131 -9.80896,-2.399525 -14.04014,-5.003517 -1.29569,-0.79739 -1.94138,-2.472854 -3.30496,-3.147597 -3.86178,-1.910954 -8.70649,-0.587683 -12.7653,-2.033753 -1.234887,-0.439964 -2.224198,-1.397185 -3.400071,-1.97667 -2.292562,-1.129795 -2.510579,-4.125901 -5.853547,-4.122395 z M 100.8878,30.421152 c 1.78489,0.09592 6.53758,0.423163 7.76177,1.873482 1.06108,1.257061 -2.13263,2.895404 -3.74697,3.211633 -1.10742,0.216931 -2.46479,-0.224675 -3.21162,-1.070667 -0.90317,-1.023087 -2.165931,-4.087681 -0.80318,-4.014448 z"
       style="fill:#552200;stroke-width:0.440307"
       id="path2697" />
  </g>
</svg>
