<?xml version="1.0" encoding="UTF-8" standalone="no"?>
<svg
   xmlns:dc="http://purl.org/dc/elements/1.1/"
   xmlns:cc="http://creativecommons.org/ns#"
   xmlns:rdf="http://www.w3.org/1999/02/22-rdf-syntax-ns#"
   xmlns:svg="http://www.w3.org/2000/svg"
   xmlns="http://www.w3.org/2000/svg"
   xmlns:sodipodi="http://sodipodi.sourceforge.net/DTD/sodipodi-0.dtd"
   xmlns:inkscape="http://www.inkscape.org/namespaces/inkscape"
   inkscape:export-ydpi="6.1685719"
   inkscape:export-xdpi="6.1685719"
   inkscape:export-filename="C:\Projects\boarwood\misc\Squirrels.png"
   sodipodi:docname="Squirrels.svg"
   inkscape:version="1.0 (4035a4fb49, 2020-05-01)"
   id="svg8"
   version="1.1"
   viewBox="0 0 210 297"
   height="297mm"
   width="210mm">
  <defs
     id="defs2" />
  <sodipodi:namedview
     inkscape:window-maximized="1"
     inkscape:window-y="-8"
     inkscape:window-x="-8"
     inkscape:window-height="1017"
     inkscape:window-width="1920"
     inkscape:snap-page="true"
     inkscape:snap-bbox-midpoints="true"
     inkscape:snap-bbox="true"
     showgrid="false"
     inkscape:document-rotation="0"
     inkscape:current-layer="layer1"
     inkscape:document-units="mm"
     inkscape:cy="456.03651"
     inkscape:cx="578.48402"
     inkscape:zoom="0.24748737"
     inkscape:pageshadow="2"
     inkscape:pageopacity="0.0"
     borderopacity="1.0"
     bordercolor="#666666"
     pagecolor="#ffffff"
     id="base" />
  <metadata
     id="metadata5">
    <rdf:RDF>
      <cc:Work
         rdf:about="">
        <dc:format>image/svg+xml</dc:format>
        <dc:type
           rdf:resource="http://purl.org/dc/dcmitype/StillImage" />
        <dc:title></dc:title>
      </cc:Work>
    </rdf:RDF>
  </metadata>
  <g
     id="layer1"
     inkscape:groupmode="layer"
     inkscape:label="Layer 1">
    <path
       sodipodi:nodetypes="cccc"
       id="path879"
       d="M -1.2188256e-7,1.4173824e-6 H 209.99999 C 209.99999,262.49043 104.99999,262.49997 104.99999,262.49997 104.99999,262.49997 -1.2188256e-7,262.63695 -1.2188256e-7,1.4173824e-6 Z"
       style="color:#000000;clip-rule:nonzero;display:inline;overflow:visible;visibility:visible;isolation:auto;mix-blend-mode:normal;color-interpolation:sRGB;color-interpolation-filters:linearRGB;solid-color:#000000;solid-opacity:1;fill:#552200;fill-opacity:1;fill-rule:evenodd;stroke:none;stroke-width:0.277812px;stroke-linecap:butt;stroke-linejoin:miter;stroke-miterlimit:4;stroke-dasharray:none;stroke-dashoffset:0;stroke-opacity:1;color-rendering:auto;image-rendering:auto;shape-rendering:auto;text-rendering:auto;enable-background:accumulate" />
    <path
       style="color:#000000;clip-rule:nonzero;display:inline;overflow:visible;visibility:visible;isolation:auto;mix-blend-mode:normal;color-interpolation:sRGB;color-interpolation-filters:linearRGB;solid-color:#000000;solid-opacity:1;fill:#5aa02c;fill-opacity:1;fill-rule:evenodd;stroke:none;stroke-width:0.242501px;stroke-linecap:butt;stroke-linejoin:miter;stroke-miterlimit:4;stroke-dasharray:none;stroke-dashoffset:0;stroke-opacity:1;color-rendering:auto;image-rendering:auto;shape-rendering:auto;text-rendering:auto;enable-background:accumulate"
       d="M 13.345676,16.682095 H 196.65431 c 0,229.127455 -91.65432,229.135785 -91.65432,229.135785 0,0 -91.654314,0.11956 -91.654314,-229.135785 z"
       id="path877"
       sodipodi:nodetypes="cccc" />
    <g
       style="fill:#cccccc;fill-opacity:1"
       transform="matrix(0.35951188,0,0,0.35951188,12.964936,12.756569)"
       id="g1492"
       class="">
      <path
         style="fill:#cccccc;fill-opacity:1"
         id="path1490"
         fill-opacity="1"
         fill="#ffffff"
         d="m 206.135,23.568 c -61.993,0.106 -133.212,38.319 -173.762,85.328 0,0 94.532,-8.388 109.732,35.477 24.55,70.846 -103.768,62.832 -105.619,173.623 -1.394,83.471 89.36,169.758 176.1,169.812 4.214,1.405 181.953,0 181.953,0 19.783,-0.28 20.606,-22.551 -48.812,-36.637 145.592,-147.853 -86.742,-159.073 -85.456,-45.779 -17.956,-18.803 0.577,-99.816 97.692,-95.832 32.91,23.48 51.817,27.373 88.56,19.284 6.982,-1.537 12.05,-25.665 -5.462,-27.064 l -31.78,-2.54 c -28.106,-25.677 -34.818,-36.477 -6.67,-57.463 68.87,18.058 77.047,12.076 77.016,-13.33 -0.03,-24.855 -9.527,-90.633 -65.832,-93.815 -7.701,-10.311 9.79,-42.042 -3.953,-42.957 -19.014,-1.266 -50.482,28.417 -46.266,43.787 -18.335,7.755 -38.728,31.156 -59.15,59.614 -69.316,25.43 -119.49,142.639 -120.15,170.632 C 183.697,183.273 337.518,185.114 324.492,120.938 310.422,51.614 257.5,23.48 206.135,23.568 Z M 432.807,169.97 c 7.164,0 12.972,5.808 12.972,12.973 0,7.164 -5.808,12.972 -12.972,12.972 -7.165,0 -12.973,-5.808 -12.973,-12.972 0,-7.165 5.808,-12.973 12.973,-12.973 z" />
    </g>
  </g>
</svg>
