<?xml version="1.0" encoding="UTF-8" standalone="no"?>
<svg
   xmlns:dc="http://purl.org/dc/elements/1.1/"
   xmlns:cc="http://creativecommons.org/ns#"
   xmlns:rdf="http://www.w3.org/1999/02/22-rdf-syntax-ns#"
   xmlns:svg="http://www.w3.org/2000/svg"
   xmlns="http://www.w3.org/2000/svg"
   xmlns:sodipodi="http://sodipodi.sourceforge.net/DTD/sodipodi-0.dtd"
   xmlns:inkscape="http://www.inkscape.org/namespaces/inkscape"
   width="210mm"
   height="297mm"
   viewBox="0 0 210 297"
   version="1.1"
   id="svg8"
   inkscape:version="1.0 (4035a4fb49, 2020-05-01)"
   sodipodi:docname="Vulture Knights.svg"
   inkscape:export-filename="C:\Projects\boarwood\misc\Vulture Knights.png"
   inkscape:export-xdpi="6.1685715"
   inkscape:export-ydpi="6.1685715">
  <defs
     id="defs2" />
  <sodipodi:namedview
     id="base"
     pagecolor="#ffffff"
     bordercolor="#666666"
     borderopacity="1.0"
     inkscape:pageopacity="0.0"
     inkscape:pageshadow="2"
     inkscape:zoom="0.35"
     inkscape:cx="483.09787"
     inkscape:cy="359.41767"
     inkscape:document-units="mm"
     inkscape:current-layer="layer1"
     inkscape:document-rotation="0"
     showgrid="false"
     inkscape:snap-bbox="true"
     inkscape:snap-bbox-midpoints="true"
     inkscape:snap-page="true"
     inkscape:window-width="1920"
     inkscape:window-height="1017"
     inkscape:window-x="-8"
     inkscape:window-y="-8"
     inkscape:window-maximized="1" />
  <metadata
     id="metadata5">
    <rdf:RDF>
      <cc:Work
         rdf:about="">
        <dc:format>image/svg+xml</dc:format>
        <dc:type
           rdf:resource="http://purl.org/dc/dcmitype/StillImage" />
        <dc:title />
      </cc:Work>
    </rdf:RDF>
  </metadata>
  <g
     inkscape:label="Layer 1"
     inkscape:groupmode="layer"
     id="layer1">
    <path
       style="color:#000000;clip-rule:nonzero;display:inline;overflow:visible;visibility:visible;isolation:auto;mix-blend-mode:normal;color-interpolation:sRGB;color-interpolation-filters:linearRGB;solid-color:#000000;solid-opacity:1;fill:#cc0000;fill-opacity:1;fill-rule:evenodd;stroke:none;stroke-width:0.277812px;stroke-linecap:butt;stroke-linejoin:miter;stroke-miterlimit:4;stroke-dasharray:none;stroke-dashoffset:0;stroke-opacity:1;color-rendering:auto;image-rendering:auto;shape-rendering:auto;text-rendering:auto;enable-background:accumulate"
       d="M -1.2188256e-7,1.4173824e-6 H 209.99999 C 209.99999,262.49043 104.99999,262.49997 104.99999,262.49997 104.99999,262.49997 -1.2188256e-7,262.63695 -1.2188256e-7,1.4173824e-6 Z"
       id="path879"
       sodipodi:nodetypes="cccc" />
    <path
       sodipodi:nodetypes="cccc"
       id="path877"
       d="M 13.345676,16.682095 H 196.65431 c 0,229.127455 -91.65432,229.135785 -91.65432,229.135785 0,0 -91.654314,0.11956 -91.654314,-229.135785 z"
       style="color:#000000;clip-rule:nonzero;display:inline;overflow:visible;visibility:visible;isolation:auto;mix-blend-mode:normal;color-interpolation:sRGB;color-interpolation-filters:linearRGB;solid-color:#000000;solid-opacity:1;fill:#000000;fill-opacity:1;fill-rule:evenodd;stroke:none;stroke-width:0.242501px;stroke-linecap:butt;stroke-linejoin:miter;stroke-miterlimit:4;stroke-dasharray:none;stroke-dashoffset:0;stroke-opacity:1;color-rendering:auto;image-rendering:auto;shape-rendering:auto;text-rendering:auto;enable-background:accumulate" />
    <g
       transform="matrix(0.36176258,0,0,0.36176258,13.680434,13.966294)"
       id="g915"
       class=""
       style="fill:#cc0000">
      <path
         id="path913"
         fill-opacity="1"
         fill="#ffffff"
         d="m 363.188,28.063 c -34.372,0 -62.25,27.863 -62.25,62.218 0,2.92 0.204,5.782 0.593,8.595 -17.072,3.958 -33.287,12.576 -46.592,25.875 -12.052,12.046 -30.82,44.714 -50.813,83.625 L 120.25,272.28 152.28,273 67.562,316.406 141.594,312.844 103.156,338.5 143,336.125 c -1.84,4.05 -3.69,8.165 -5.406,11.97 l -76.342883,47.23431 46.750003,-1.283 -43.656003,48.032 46.750003,-17.03 -3.625,32.873 L 189.063,372.657 c 5.69,16.434 15.305,28.105 27.156,32.624 -2.14286,26.78571 32.124,59.47 32.124,59.47 -20.13,2.938 -39.952,12.047 -55.063,26.47 0,0 83.82777,-21.92622 129.5,0 -13.087,-17.008 -32.674,-25.766 -53.624,-27.283 0,0 -40.33457,-40.29886 -31.406,-58.156 21.746,-6.568 46.638,-34.228 67.875,-92.28 19.033,-10.784 34.323,-20.795 42.375,-28.844 33.67,-33.656 72.28,-103.9 53.844,-145.687 0.006,-0.006 0.025,0.004 0.03,0 38.314,-5.095 66.074,-7.915 86.438,21.53 5.48,-46.96 -25.07,-65.864 -57.406,-74.53 -1.616,-6.128 -4.74,-11.664 -8.97,-16.157 -8.466,-24.3 -31.55,-41.75 -58.748,-41.75 z m 31.53,48.593 c 9.70919,8.954291 3.2366,2.5407 12.10082,12.500216 8.86422,9.95952 -6.42001,17.305404 -16.90301,17.305404 -10.482,0 -13.97781,-0.54462 -13.97781,-11.02462 0.4869,-11.080679 9.07081,-27.735291 18.78,-18.781 z"
         sodipodi:nodetypes="csccccccccccccccccccccccccccccccczzscz"
         style="fill:#cc0000" />
    </g>
  </g>
</svg>
